<svg xmlns="http://www.w3.org/2000/svg" width="465.333" height="430.667" version="1.0" viewBox="0 0 349 323"><path d="M195.3 10.6c.4.4-.2 1.4-1.4 2.2-1.1.8-2.3 1.1-2.7.7-.3-.3 0-1 .8-1.5.8-.6 1-1 .4-1s-2.1 1.1-3.4 2.5c-1.3 1.4-2.8 2.5-3.2 2.5-1.4 0-15.8 11-15.8 12.1 0 .4-2 2.9-4.5 5.5-4.6 4.7-5.3 6-3.4 6.6.7.2.7 1.7 0 4.8-1.7 7.1-1.3 16 1 24.6 2.5 9.2 3.4 15.7 2.4 18.2-1.2 3-4.5-2.3-4.5-7.2 0-2.2-.4-4.7-.9-5.5-.6-.9-.5-2.1.2-3.1.7-1.3.6-2.7-.5-5.5l-1.5-3.8-3.1 9.9c-4.5 14.5-5.2 17.7-5.2 23.6 0 5.5.7 12.2 1.7 14.8.3.8.7 3.1.9 5 .2 1.9 1.2 6.6 2.3 10.5 1.1 3.8 1.8 7.1 1.6 7.3-.4.4-3.7-5.6-3.4-6 .1-.2-.6-2.9-1.5-6.1-.9-3.2-1.4-6.2-1.1-6.7.3-.6.4-1 .1-1-.9 0-56.9 24.6-62.7 27.6-27.3 13.6-43.3 40-43.3 70.9 0 17.7 4.3 31.6 14.2 46.1 8.8 13 25.7 25.7 40.7 30.4 2.2.7 4.5 1.6 5 2.1 1.3 1 2.7 1.1 12.8 1.3 6.2 0 8.1-.3 9.1-1.5.7-1.1 2.1-1.5 4.2-1.2 3.8.6 5.3-1.2 2.3-2.7-2.6-1.4-6.9-.5-6.9 1.5 0 .8-.6 1.5-1.2 1.6-.7 0-3.4.4-6 .8-3.5.6-4.8.5-4.8-.4 0-1.6 3.8-4.9 8-7 1.9-1 3.8-2.3 4.2-2.8 1.1-1.8-.3-2.9-1.9-1.5-2.3 1.9-10.7 3.6-13.2 2.7-1.1-.5-2.1-1.5-2.1-2.4 0-2.3-1.8-1.8-2.2.7-.4 2.9-2.8 3.6-2.8.8 0-1.2.5-3 1-4.1.7-1.3.7-1.9 0-1.9-.5 0-1-1.7-1-3.8l.1-3.7 1.8 2.2c1 1.2 2.1 1.9 2.5 1.6.3-.3.8.2 1.2 1.1.3.9 1 1.6 1.5 1.6 1.5 0 1-2.2-.9-3.9-4.5-4-6.2-9.7-6.2-20.4 0-10.9 1.6-28.7 2.6-29.6.4-.3.9 0 1.2.8.2.7 1.7 2.5 3.3 4.1 1.6 1.5 2.9 3.3 2.9 3.9 0 .7.4 1 .9.6.6-.3 1.5.4 2.1 1.5.6 1.1 1.5 2 2 2 1.3 0-.9-3.9-3.6-6.5-6.2-6-8.8-10.8-9.2-16.6-.2-3.3-.1-5.9.3-5.9 1.6 0 7.3 7.5 6.7 9-.4 1.2-.1 1.1 1.4-.3 1.3-1.2 1.6-2 .8-2.5-.7-.4-2.8-3.2-4.8-6.2-2.7-4.1-3.6-6.5-3.6-9.7 0-2.3.5-4.5 1-4.8.6-.4.8-1.1.5-1.6-.8-1.2 1.2-1.2 3.6.1 2.7 1.5 2.4.2-.6-2.6-3.1-2.9-3.5-6.8-.5-5.9 1.1.4 2 .2 2-.4 0-.6-.4-1.1-1-1.1-.5 0-1-.9-1-2s.3-2 .8-2c.4 0 4.2 2.7 8.5 6 4.2 3.3 7.7 5.6 7.7 5.2 0-.5-3.6-3.7-8-7.1-4.4-3.5-8-6.6-8-6.9 0-.8 4.3-7.6 7.3-11.3 2.5-3.2 14.7-10.9 14.7-9.3 0 .3.7-.2 1.6-1 .8-.9 2.5-1.6 3.7-1.6 2.2.1 2.2.1.2 1.6-1.2 1-1.5 1.8-.9 2.1 1.1.4 1 5.6-.2 7.5-2 3.3-1.4 15.6.9 18.1.7.7 2.1 3 3.2 5.2s2.9 4.1 4 4.4c1.1.2 3.9 2.1 6.3 4.3 4.5 4.1 5.9 4.4 7.6 1.4.8-1.4.8-2-.1-2.3-.7-.3-1.3-1.1-1.3-2 0-.8-1.2-3.4-2.6-5.9-3.4-5.8-4.7-11.1-2.8-11.8.8-.3 1.1-1.2.7-2.3-.5-1.5-.3-1.5 1 .2 1.2 1.4 1.6 1.6 1.7.5 0-1.9 1.7-.1 2.3 2.5.4 1.7.5 1.6.6-.5.2-3 2-6.5 2.2-4 0 .8.7-.1 1.4-2l1.3-3.5.2 4.5.2 4.5 1-3.5c1.1-3.4 1.1-3.4 1.8-1l.8 2.5.2-2.5.1-2.5 1 2.5c.8 2 1.2 2.2 1.9 1 .8-1.2 1-1 1 .7 0 2.7 1.7 3.1 2.3.5.3-1 .5-.5.6 1.2.1 2.1.5 2.7 1.6 2.2 1.1-.4 1.5.3 1.6 2.7.1 1.8.3 2.4.6 1.4.8-3.1 2.3-1.8 2.4 2 0 2.9.2 3.3.8 1.8.6-1.6.9-1.4 1.5 1.5.5 2.7.9 3.2 1.6 2 .8-1.2 1-1.1 1 .7 0 1.3.5 2.3 1 2.3.6 0 1.1-1 1.1-2.3.1-1.2.6 0 1.1 2.8 1.3 6.8 2.8 8.1 2.9 2.4 0-3.3.2-3.9.9-2.4.4 1.1.6 2.9.3 4.1-.3 1.4.1 2.1 1.1 2.1 1.1 0 1.3-.4.6-1.2-.6-.7-.3-1.5.9-2.2 2.2-1.4 3.5-.5 2 1.3-.8 1-.6 1.3 1 1.1 1.2-.1 2.1-.2 2.1-.3 0-1.4-5.4-9.8-8.6-13.3-3.9-4.4-9.1-14.8-11.8-23.6-.9-3.1-.9-4.5 0-6.3.8-1.7 1.3-2 1.7-1 .4.9.6 1 .6 0 .1-.6 1-1.2 2-1.2 1.7 0 3.8-3.9 3.3-6.2-.3-1.5 2.7-2.9 4.3-2 1.9 1 9.4-.1 10.4-1.5.3-.6 2.1-1.8 4-2.8 3.9-2 4.1-2.1 9.9-7.1 5.1-4.4 4.8-5.8-.5-1.8-3 2.2-5 2.9-10 3.2-6.6.5-9.2-.7-15.5-6.7-1.4-1.4-3.1-2.7-3.7-2.7-.6-.1-1.6-.2-2.1-.3-1.5-.2-7-9.1-7-11.4 0-1 .5-1.5 1-1.2.6.3 1-.4 1-1.7 0-1.3.3-3.2.6-4.3.3-1.4-.7-3.2-3.6-6.2-2.5-2.7-4-5.2-4-6.8 0-1.4-.5-2.5-1.2-2.5-.9 0-.9-.3 0-1.2.7-.7 1.2-1.9 1.2-2.8 0-.9.6-2.5 1.4-3.6 1.3-1.7 1.7-1.8 3.8-.5 2.5 1.6 6.8 2.3 6.8 1.2 0-.4-.5-1.2-1.2-1.9-.8-.8-.8-1.2-.1-1.2.6 0 1.3.7 1.7 1.5.8 2.1 3.2 1.9 4.9-.5 1.3-1.9 1.6-1.9 3-.5 2.2 2.1 4.4 2 2.6-.2-1.3-1.5-1.2-1.5.9-.4 3.4 1.8 3.9.6 1.7-3.5s-4.5-5.2-12.6-6.1c-6.7-.7-7.1-1.6-4.2-8.1.9-2 1.7-3.9 1.8-4.2.5-2 3.7-6.9 5.7-8.6 1.2-1.2 4.7-2.9 7.6-3.9 2.8-.9 5.2-2.3 5.2-3 0-.7.6-1.5 1.3-1.8.9-.3.9-.7-.2-2-1.5-1.9-6.8-2.2-9.1-.7-1.1.8-.7.9 1.5.5 2.8-.6 2.7-.4-1 1.6-2.2 1.2-5.8 3.6-8 5.3l-4 3.1 2.3-3.5c1.2-1.9 2.7-3.4 3.3-3.2.6.1.7-.2.4-.8-.9-1.5 2.1-3.7 7-5.1 2.1-.6 4.7-2 5.6-3 .9-1 2.1-1.9 2.7-1.9.6 0 1.2-.6 1.5-1.3.2-.6.7-.9 1.1-.5.4.3.2 1.5-.5 2.6-.8 1.2-.9 2.9-.3 4.8.9 3.4 1.1 4.3 1.3 6.6 0 .9 2 2.6 4.4 3.7 2.4 1.2 5.5 3.3 6.9 4.8 2.7 3 8.1 11.9 11.8 19.5 1.3 2.7 2.7 4.8 3 4.8 1.7 0 2.9 5.8 3 15.2.2 11.8-.5 15.5-3.4 18-2.7 2.2-10.1 4.8-13.8 4.8-6.5 0-11.1 4.7-8.8 9 2 3.8 6.5 2.6 12.8-3.3 3.1-2.9 7-6.1 8.5-7.1l2.8-1.7-1.5 2.8c-.8 1.5-2.6 4.3-4 6.2-1.6 2.1-2.6 4.8-2.6 6.7 0 3.4-1.9 11.7-3.9 16.7-1.5 3.7-1.3 22.8.2 24.6.7.9.8 1.2.1.8-.6-.3-1.1.1-1.1.9 0 .9.6 1.3 1.6.9.9-.4.6.4-.8 1.9s-2 2.6-1.4 2.6c.6 0 1.4-.6 1.7-1.3.5-.9.7-.9 1.2 0 .4 1 1.1 1 2.7.1 2.1-1 2.1-1 .6.8-1.3 1.5-1.5 3-1 7.1.7 4.8.4 5.8-4.6 15.9-2.9 5.9-5.1 10.9-4.9 11.1.2.2 2.2-3.2 4.5-7.6 2.2-4.4 5-9.5 6.1-11.3 2.1-3.4 3-7.9 1-4.8-.7 1.1-1 .7-1-1.8 0-1.7.4-3.2.9-3.2.6 0 1.2-1.5 1.4-3.3.4-2.9.5-3 1.2-1 .8 2.5 2.1 3 2.8 1 .3-.6.6-.2.6 1 .1 2.4 2.1 3.3 2.1 1 .1-.6.8.4 1.8 2.3l1.6 3.5.3-4c.4-4.5-5.1-30.8-6.5-31.3-1-.3.9-7.2 2-7.2.5 0 .8 1.9.8 4.3s1.1 8.5 2.4 13.7c5.2 19.9 5.3 21.9 1.6 26.1-1.6 1.8-2.6 3.7-2.3 4.2.3.5-.2 1.4-1 2-.8.7-1.7 2.4-1.9 4-.4 2.2-.3 2.5.8 1.6 1-.8 1.4-.8 1.4 0 0 .6.6 1.1 1.4 1.1.8 0 1.7.6 1.9 1.2.4 1 .6 1 .6 0 .1-.6.8-1.2 1.7-1.2 1.7 0 15.9-13.8 19-18.5 1-1.6 2.2-5.8 2.6-9.4.5-3.7 1-8.3 1.3-10.5.3-2.2 0-4.5-.6-5.2-1.9-2.3 7-1.8 13.5.8 9.1 3.4 19.5 17 19.6 25.4 0 2.9 1.7 9.8 4.1 16.9.6 1.6 1 3.4 1 4-.1.5-.2 6.3-.4 12.8-.3 13.3-.9 12.8 8.1 7.4 16.4-9.8 29.6-28.1 34.8-48.2 2.5-9.6 2.5-28.4 0-38-8.9-34.1-37.3-58.3-71.9-61.1-7.2-.5-19.4.5-24.8 2.2-1.2.3-1.8-.4-2.4-2.8-.6-2.9-.8-3-1.5-1.3-.4 1.2-.2 3.3.6 5.3.7 1.8.9 3 .4 2.7-.6-.4-1 .8-1.1 2.7 0 1.8-.6 5.1-1.3 7.3-1.2 4-1.2 4-2.5 1.6s-1.3-4.8.5-22.8c.4-4.2 0-9.6-1.1-16-1-5.4-1.8-10.5-1.8-11.3 0-.8-.5-2.2-1.2-3-.7-.8-2.2-3.4-3.4-5.7-3.2-6.4-7.7-9.3-14.5-9.5-4.7-.1-5.6-.4-5.6-2 0-1.3-.7-1.8-2.5-1.8-1.7 0-2.5-.6-2.5-1.8 0-1-.3-1.3-.8-.6-1 1.5-5.2 1.2-5.2-.3 0-.7-1-1.3-2.2-1.4-1.3 0-3.4-.3-4.7-.5-1.4-.2-2.2-.1-1.8.2zM182 25.4c0 .2-.8 1-1.7 1.7-1.6 1.3-1.7 1.2-.4-.4 1.3-1.6 2.1-2.1 2.1-1.3zm41.1 5.3c1 1.2.5 1.1-1.8-.6-1.8-1.2-3.3-2.4-3.3-2.7 0-.9 3.7 1.5 5.1 3.3zm-.5 4.2c2.2 3.1 1.2 2.5-2.7-1.6-2.2-2.4-2.6-3.1-1.1-2 1.3.8 3 2.5 3.8 3.6zm.8 5.7c.2 1 1.4 3.7 2.6 5.9l2.2 4-2.8-3.5c-1.6-1.9-4.1-4.7-5.6-6.1-2-1.9-2.4-2.9-1.6-3.7.8-.8.8-1.6-.2-2.9-.8-1 .1-.4 1.8 1.2 1.8 1.7 3.4 4 3.6 5.1zm-32-2.3c-.2.7-1.4 1.9-2.7 2.6-2.1 1.3-2.1 1.2.2-1.3 2.7-2.9 3.3-3.2 2.5-1.3zm38.4 15.2c-.3.3-.9-.2-1.2-1.2-.6-1.4-.5-1.5.5-.6.7.7 1 1.5.7 1.8zm11.9 7.7c-.3.8-.6.5-.6-.6-.1-1.1.2-1.7.5-1.3.3.3.4 1.2.1 1.9zm-54.8 5.7c1.6 1 .7 1.6-3.6 2.6-2.6.5-3.3.3-3.3-.8 0-2.4 4.2-3.5 6.9-1.8zM253 99.3c0 1.2.7 3.1 1.5 4.1 1.9 2.5 1.9 14.8.2 22.6-.8 3.1-1 7.4-.6 10 .4 3.2.2 5.2-.8 6.7-.8 1.2-1.2 3.2-.9 4.5.3 1.3-.1.8-1-1.1-.8-1.8-1.3-4-.9-4.9.4-1.2.3-1.3-1-.2-1.9 1.6-2.1 1.4-2.8-3.5-.4-2.4-.3-3.5.2-2.6 1 1.5 2.3-8.1 2.5-17.1.1-7.4 1.6-5.6 1.6 1.9 0 5.4.2 6.4 1.3 5.4 1.4-1.4 1.3-16.6-.1-24.3-.5-2.6-.5-4.5-.1-4.2.5.3.9 1.5.9 2.7zm-3.3 4.9c-.2 1.3-.4.3-.4-2.2s.2-3.5.4-2.3c.2 1.3.2 3.3 0 4.5zm-2.6 10.3-.9 10 .1-8.3c0-4.6.2-9.5.5-11 1-5.2 1.2-.6.3 9.3zm3.9-3.5c0 .5-.4 1-1 1-.5 0-1-.5-1-1 0-.6.5-1 1-1 .6 0 1 .4 1 1zm-17 15c1.7 4 .3 14.6-2.1 16.1-.6.4-.9 1.3-.7 2 .3.8-.3 2.5-1.2 3.9-2.6 3.7-3.3 8.3-2 13.1.9 3.3.9 4.4-.2 5-.7.5-1.6.9-1.9.9-.7 0-.4-6.3.7-14 .5-3 .9-6 .9-6.5.1-.6.5-3.5 1-6.5s.8-5.8.7-6.3c-.1-.4.3-.7.8-.7.7 0 .7-.6.1-1.9-.6-1-.8-2.1-.5-2.4.5-.5 1.1-2.8 1.3-5 .2-1.7 2-.5 3.1 2.3zm12.7 4.2c-.2 1.3-.4.5-.4-1.7-.1-2.2.1-3.2.4-2.3.2 1 .2 2.8 0 4zm-75.1 2.5c1.2 1.5 1.5 1.6 2.3.4.8-1.2 1.1-1 1.6 1.1.4 1.5.3 3.2-.1 3.9-.5.8-.2 1.1.7.7 1.4-.5 1.8 1 1.9 6.9 0 2.5 1.5 3.1 2.3 1 .3-.7.6-.5.6.5.1 1-.4 1.8-1 1.8s-.8.8-.5 1.7c.3 1 .8 3.1 1.1 4.8l.7 3-2.1-3.3c-1.1-1.7-2.5-3.2-3.1-3.2-.5 0-2.5-1.4-4.5-3.1-2.6-2.3-3.4-3.7-2.9-5.1.5-1.8.4-1.8-1.6-.8-2.4 1.3-5 6.6-5 10.2 0 2.2-5.5 12.8-6.6 12.8-.3 0 .7-2.4 2.4-5.3 1.6-2.8 3.1-7 3.4-9.2.7-5 4.5-15 6.4-16.9.8-.8 1.4-1.9 1.4-2.5 0-1.6 1.1-1.3 2.6.6zm-17.6 20c0 1.2-3.3 4.3-4.7 4.3-1.1 0-1.1-.4-.1-1.9.7-1.1 1.6-1.7 2-1.5.4.3.8 0 .8-.5 0-.6.5-1.1 1-1.1.6 0 1 .3 1 .7zm110.3 1.3c.3 1.1.1 2-.4 2s-.9-.9-.9-2 .2-2 .4-2 .6.9.9 2zm-11.8 2.9c.4 1.5.3 2.1-.3 1.7-.5-.3-1.2-1.7-1.5-3.2-.5-3 .8-2 1.8 1.5zm-67.2 10c2.2 3.8 2.2 5.6-.2 3.4-1.9-1.8-3.5-6.3-2.2-6.3.4 0 1.4 1.3 2.4 2.9zm12.2 19.1c-.3.5-1 1-1.6 1-.5 0-.9-.5-.9-1 0-.6.7-1 1.6-1 .8 0 1.2.4.9 1z"/><path d="M249.6 131.5c-.3.9-.6 2.2-.5 2.8 0 .7.5.1 1-1.2s.8-2.6.5-2.8c-.2-.2-.6.3-1 1.2zM217.4 64.9c-4.3 1.1-5.4 1.9-5.4 4.2 0 1.1.4 1.8.9 1.5.4-.3.6.6.3 1.9-.5 2.7.7 3.2 2.6 1.3.9-.9 1.3-.7 1.8.5.8 2.1 4.3 2.2 5 .2.4-.8 1-1.5 1.5-1.5s.9.7.9 1.5c0 1.9.9 1.9 3.4 0 1.9-1.4 1.9-1.5.1-3.5-1-1.1-3.6-2.3-5.7-2.6-4.5-.8-4.4-1.1.9-2.9l3.8-1.4H224c-1.9.1-4.9.4-6.6.8zM195 90.1c0 2.9 3.9 6.8 7.6 7.5 2.8.5 3.9.2 5.5-1.5 1.1-1.1 2.6-2.1 3.4-2.1.8 0 1.5-.5 1.5-1 0-1.3-1.6-1.3-3.9.2-1.5.9-2.4.8-4.5-.6-1.6-1-3.5-1.4-4.7-1.1-1.4.5-2.5.1-3.4-1.2-1.2-1.5-1.4-1.6-1.5-.2zM218 89.3c0 .2 1.6 2.4 3.5 4.8s3.5 5 3.5 5.7c0 .7.5 1 1 .7 2.1-1.3.8-4.2-3.5-7.8-2.5-2.1-4.5-3.6-4.5-3.4z"/><path d="M187.8 94.8c-4.8 3.4-4.6 5.9.8 8.7 6.1 3.2 8.6 3.7 7.9 1.6-.4-1.4.6-1.7 8.7-1.9 5-.2 9.5-.5 9.9-.8.4-.2 1 0 1.4.6.9 1.5 2.7 1.2 5.2-.8 2.2-1.6 1.5-1.7-16.7-1.5-10.7.1-19-.2-19-.7 0-.5 1.4-2.5 3.1-4.5 3.7-4.1 3.6-4.2-1.3-.7zM198 109.9c1.4 1.2 3.6 2.1 4.9 2.1 3 0 2.7-.3-2.9-2.4l-4.5-1.7 2.5 2zM219 176c-3 2.2-5.7 4.6-5.9 5.3-.2.6.5.4 1.6-.6 1.1-.9 2.3-1.4 2.6-1 .4.3.7.1.7-.6 0-2.2 2-.1 2.1 2.2.1 1.6.4 1.2 1.3-1.4.6-2 1.9-4.4 2.9-5.3.9-1 1.7-1.9 1.7-2.2 0-1-1.9-.1-7 3.6zM124 174.2c0 .2 1.1 1.9 2.5 3.8s2.5 2.7 2.5 1.9c0-.8-1.2-2.5-2.5-3.8-1.4-1.3-2.5-2.1-2.5-1.9zM230.6 174.9c-.4.7-.5 1.5-.2 1.8.9.9 1.9-.4 1.4-1.8-.4-1.1-.6-1.1-1.2 0zM280 176.5c-1.3 1.4-2.1 2.7-1.8 3.1.3.3 1.6-.9 2.8-2.5 2.6-3.7 2.2-4-1-.6zM129.5 187.5c.4 2.2 1 4.9 1.3 6 .7 2.4.7 2 1.6 7.5.4 2.5 1.4 6.4 2.2 8.7.7 2.3 1.1 5.7.8 7.5-.4 2.4-.3 2.9.4 1.9.8-1.1.9-.3.5 2.6-.3 2.4 0 5 .8 6.4 1.3 2.6 1.6 4.6 2.2 17.7.3 6.2 1 9.4 2.8 12.8l2.4 4.5-3.4 2.8-3.4 2.8 12.4.6c7.7.3 14.1 1.1 16.8 2.1 4.5 1.7 17.9 2.3 21.6 1.1 1.1-.4 3.8-1.5 6-2.5 2.2-.9 21.8-9.5 43.5-19s40-17.8 40.6-18.6c.6-.7 1.9-5.3 2.8-10.1 1-4.8 1.9-9.8 2.2-11 .5-2.8.1-2.9-38.1-4.8-16.5-.9-36.7-2-45-2.5-8.2-.5-15.1-.7-15.3-.5-.3.2-1.3 7.1-2.3 15.2-1 8.1-2.5 19.1-3.3 24.3-.9 5.2-1.6 11.1-1.6 13 0 2.5-.3 3.1-.9 2-.6-.8-.7-1.8-.5-2.2.3-.4 0-.8-.5-.8-.6 0-1.1.8-1.1 1.7 0 1.5-.2 1.4-1.6-.3-1.5-1.8-1.5-1.8-.9.3.8 3-.3 3-1.5 0l-.9-2.2v2.4c-.1 1.9-.4 2.2-1.2 1.4-.9-.9-.8-2 .4-4.4.8-1.8 1.3-3.8 1-4.5-.6-1.5-1.6-1.1-8.6 3.3-2.2 1.4-4 2.3-4.1 2.1-.1-.2-.7-1.4-1.3-2.8-1.1-2.4-1.2-2.4-1.2 1.2-.1 5.2-2.1 4.8-2.2-.5 0-3.4-.2-3.8-.9-2.1-1.9 4.7-3.1 3.6-3.1-2.9 0-1.5-.4-2.7-.9-2.7-.6 0-1 1.2-1 2.6 0 1.6-.4 2.3-1.1 1.8-.8-.4-.9.4-.4 2.7 1.1 5-.7 2.6-2.2-2.9-1.5-6-1.7-13.5-.2-11 .5 1 1.4 1.8 2 1.8.5 0 .1-1-1-2.2-1.1-1.2-2-3.1-1.9-4.2.2-2.5-4.7-22.5-6.8-28.1-.9-2.1-1.7-5.1-1.9-6.5-.5-3.7-3.4-14.2-4.1-14.9-.3-.3-.3 1.2.1 3.4zm36.5 65c0 .2-1 .9-2.2 1.5-2.2 1.1-2.2 1-.4-.4 2.1-1.7 2.6-1.9 2.6-1.1z"/><path d="M164.2 189c0 1.9.2 2.7.5 1.7.2-.9.2-2.5 0-3.5-.3-.9-.5-.1-.5 1.8zM115 189.9c0 2.5.6 2.7 1.3.6.4-.8.2-1.7-.3-2-.6-.4-1 .3-1 1.4zM118 191.9c0 .5.9 1.1 2 1.4 2.4.6 2.7-.8.4-1.7-2.1-.8-2.4-.8-2.4.3zM193 196.1c0 1.1.4 1.8 1 1.4.5-.3.7-1.2.3-2-.7-2.1-1.3-1.9-1.3.6zM199 195c0 .5.5 1 1 1 .6 0 1-.5 1-1 0-.6-.4-1-1-1-.5 0-1 .4-1 1zM126 197c0 .5.5 1 1.1 1 .5 0 .7-.5.4-1-.3-.6-.8-1-1.1-1-.2 0-.4.4-.4 1zM112 198.1c0 .5.5.7 1 .4.6-.3 1-.8 1-1.1 0-.2-.4-.4-1-.4-.5 0-1 .5-1 1.1zM115 199.1c0 .5.5.7 1 .4.6-.3 1-.8 1-1.1 0-.2-.4-.4-1-.4-.5 0-1 .5-1 1.1zM118 200.1c0 .5.5.7 1 .4.6-.3 1-.8 1-1.1 0-.2-.4-.4-1-.4-.5 0-1 .5-1 1.1zM194.5 199.9c-.3.5-.1 1.2.5 1.6.5.3 1-.1 1-.9 0-1.8-.6-2.1-1.5-.7zM121.1 201.6c0 1.1.3 1.4.6.6.3-.7.2-1.6-.1-1.9-.3-.4-.6.2-.5 1.3zM126.1 205.6c0 1.1.3 1.4.6.6.3-.7.2-1.6-.1-1.9-.3-.4-.6.2-.5 1.3zM128.5 208c.3.5.8 1 1.1 1 .2 0 .4-.5.4-1 0-.6-.5-1-1.1-1-.5 0-.7.4-.4 1zM117 214.6c0 .8.5 1.2 1 .9.6-.4.8-1.1.5-1.6-.9-1.4-1.5-1.1-1.5.7zM120.1 218.6c0 1.1.3 1.4.6.6.3-.7.2-1.6-.1-1.9-.3-.4-.6.2-.5 1.3zM106.1 231.6c0 1.1.3 1.4.6.6.3-.7.2-1.6-.1-1.9-.3-.4-.6.2-.5 1.3zM132.1 232.6c0 1.1.3 1.4.6.6.3-.7.2-1.6-.1-1.9-.3-.4-.6.2-.5 1.3zM146.2 235c0 1.9.2 2.7.5 1.7.2-.9.2-2.5 0-3.5-.3-.9-.5-.1-.5 1.8zM123.7 237.7c-.4.3-.7 1.3-.7 2.2.1 1.3.3 1.3 1.1-.2 1.1-1.9.8-3.3-.4-2zM113.4 271.1c-.9 1.5.1 2.1 2.6 1.7 2.1-.3 2.1-.3.1-1.5-1.4-.9-2.2-.9-2.7-.2z"/></svg>