<?xml version="1.0" standalone="no"?>
<!DOCTYPE svg PUBLIC "-//W3C//DTD SVG 20010904//EN"
 "http://www.w3.org/TR/2001/REC-SVG-20010904/DTD/svg10.dtd">
<svg version="1.0" xmlns="http://www.w3.org/2000/svg"
 width="349.000000pt" height="323.000000pt" viewBox="0 0 349.000000 323.000000"
 preserveAspectRatio="xMidYMid meet">

<g transform="translate(0.000000,323.000000) scale(0.100000,-0.100000)"
fill="#000000" stroke="none">
<path d="M1953 3124 c4 -4 -2 -14 -14 -22 -11 -8 -23 -11 -27 -7 -3 3 0 10 8
15 8 6 10 10 4 10 -6 0 -21 -11 -34 -25 -13 -14 -28 -25 -32 -25 -14 0 -158
-110 -158 -121 0 -4 -20 -29 -45 -55 -46 -47 -53 -60 -34 -66 7 -2 7 -17 0
-48 -17 -71 -13 -160 10 -246 25 -92 34 -157 24 -182 -12 -30 -45 23 -45 72 0
22 -4 47 -9 55 -6 9 -5 21 2 31 7 13 6 27 -5 55 l-15 38 -31 -99 c-45 -145
-52 -177 -52 -236 0 -55 7 -122 17 -148 3 -8 7 -31 9 -50 2 -19 12 -66 23
-105 11 -38 18 -71 16 -73 -4 -4 -37 56 -34 60 1 2 -6 29 -15 61 -9 32 -14 62
-11 67 3 6 4 10 1 10 -9 0 -569 -246 -627 -276 -273 -136 -433 -400 -433 -709
0 -177 43 -316 142 -461 88 -130 257 -257 407 -304 22 -7 45 -16 50 -21 13
-10 27 -11 128 -13 62 0 81 3 91 15 7 11 21 15 42 12 38 -6 53 12 23 27 -26
14 -69 5 -69 -15 0 -8 -6 -15 -12 -16 -7 0 -34 -4 -60 -8 -35 -6 -48 -5 -48 4
0 16 38 49 80 70 19 10 38 23 42 28 11 18 -3 29 -19 15 -23 -19 -107 -36 -132
-27 -11 5 -21 15 -21 24 0 23 -18 18 -22 -7 -4 -29 -28 -36 -28 -8 0 12 5 30
10 41 7 13 7 19 0 19 -5 0 -10 17 -10 38 l1 37 18 -22 c10 -12 21 -19 25 -16
3 3 8 -2 12 -11 3 -9 10 -16 15 -16 15 0 10 22 -9 39 -45 40 -62 97 -62 204 0
109 16 287 26 296 4 3 9 0 12 -8 2 -7 17 -25 33 -41 16 -15 29 -33 29 -39 0
-7 4 -10 9 -6 6 3 15 -4 21 -15 6 -11 15 -20 20 -20 13 0 -9 39 -36 65 -62 60
-88 108 -92 166 -2 33 -1 59 3 59 16 0 73 -75 67 -90 -4 -12 -1 -11 14 3 13
12 16 20 8 25 -7 4 -28 32 -48 62 -27 41 -36 65 -36 97 0 23 5 45 10 48 6 4 8
11 5 16 -8 12 12 12 36 -1 27 -15 24 -2 -6 26 -31 29 -35 68 -5 59 11 -4 20
-2 20 4 0 6 -4 11 -10 11 -5 0 -10 9 -10 20 0 11 3 20 8 20 4 0 42 -27 85 -60
42 -33 77 -56 77 -52 0 5 -36 37 -80 71 -44 35 -80 66 -80 69 0 8 43 76 73
113 25 32 147 109 147 93 0 -3 7 2 16 10 8 9 25 16 37 16 22 -1 22 -1 2 -16
-12 -10 -15 -18 -9 -21 11 -4 10 -56 -2 -75 -20 -33 -14 -156 9 -181 7 -7 21
-30 32 -52 11 -22 29 -41 40 -44 11 -2 39 -21 63 -43 45 -41 59 -44 76 -14 8
14 8 20 -1 23 -7 3 -13 11 -13 20 0 8 -12 34 -26 59 -34 58 -47 111 -28 118 8
3 11 12 7 23 -5 15 -3 15 10 -2 12 -14 16 -16 17 -5 0 19 17 1 23 -25 4 -17 5
-16 6 5 2 30 20 65 22 40 0 -8 7 1 14 20 l13 35 2 -45 2 -45 10 35 c11 34 11
34 18 10 l8 -25 2 25 1 25 10 -25 c8 -20 12 -22 19 -10 8 12 10 10 10 -7 0
-27 17 -31 23 -5 3 10 5 5 6 -12 1 -21 5 -27 16 -22 11 4 15 -3 16 -27 1 -18
3 -24 6 -14 8 31 23 18 24 -20 0 -29 2 -33 8 -18 6 16 9 14 15 -15 5 -27 9
-32 16 -20 8 12 10 11 10 -7 0 -13 5 -23 10 -23 6 0 11 10 11 23 1 12 6 0 11
-28 13 -68 28 -81 29 -24 0 33 2 39 9 24 4 -11 6 -29 3 -41 -3 -14 1 -21 11
-21 11 0 13 4 6 12 -6 7 -3 15 9 22 22 14 35 5 20 -13 -8 -10 -6 -13 10 -11
12 1 21 2 21 3 0 14 -54 98 -86 133 -39 44 -91 148 -118 236 -9 31 -9 45 0 63
8 17 13 20 17 10 4 -9 6 -10 6 0 1 6 10 12 20 12 17 0 38 39 33 62 -3 15 27
29 43 20 19 -10 94 1 104 15 3 6 21 18 40 28 39 20 41 21 99 71 51 44 48 58
-5 18 -30 -22 -50 -29 -100 -32 -66 -5 -92 7 -155 67 -14 14 -31 27 -37 27 -6
1 -16 2 -21 3 -15 2 -70 91 -70 114 0 10 5 15 10 12 6 -3 10 4 10 17 0 13 3
32 6 43 3 14 -7 32 -36 62 -25 27 -40 52 -40 68 0 14 -5 25 -12 25 -9 0 -9 3
0 12 7 7 12 19 12 28 0 9 6 25 14 36 13 17 17 18 38 5 25 -16 68 -23 68 -12 0
4 -5 12 -12 19 -8 8 -8 12 -1 12 6 0 13 -7 17 -15 8 -21 32 -19 49 5 13 19 16
19 30 5 22 -21 44 -20 26 2 -13 15 -12 15 9 4 34 -18 39 -6 17 35 -22 41 -45
52 -126 61 -67 7 -71 16 -42 81 9 20 17 39 18 42 5 20 37 69 57 86 12 12 47
29 76 39 28 9 52 23 52 30 0 7 6 15 13 18 9 3 9 7 -2 20 -15 19 -68 22 -91 7
-11 -8 -7 -9 15 -5 28 6 27 4 -10 -16 -22 -12 -58 -36 -80 -53 l-40 -31 23 35
c12 19 27 34 33 32 6 -1 7 2 4 8 -9 15 21 37 70 51 21 6 47 20 56 30 9 10 21
19 27 19 6 0 12 6 15 13 2 6 7 9 11 5 4 -3 2 -15 -5 -26 -8 -12 -9 -29 -3 -48
9 -34 11 -43 13 -66 0 -9 20 -26 44 -37 24 -12 55 -33 69 -48 27 -30 81 -119
118 -195 13 -27 27 -48 30 -48 17 0 29 -58 30 -152 2 -118 -5 -155 -34 -180
-27 -22 -101 -48 -138 -48 -65 0 -111 -47 -88 -90 20 -38 65 -26 128 33 31 29
70 61 85 71 l28 17 -15 -28 c-8 -15 -26 -43 -40 -62 -16 -21 -26 -48 -26 -67
0 -34 -19 -117 -39 -167 -15 -37 -13 -228 2 -246 7 -9 8 -12 1 -8 -6 3 -11 -1
-11 -9 0 -9 6 -13 16 -9 9 4 6 -4 -8 -19 -14 -15 -20 -26 -14 -26 6 0 14 6 17
13 5 9 7 9 12 0 4 -10 11 -10 27 -1 21 10 21 10 6 -8 -13 -15 -15 -30 -10 -71
7 -48 4 -58 -46 -159 -29 -59 -51 -109 -49 -111 2 -2 22 32 45 76 22 44 50 95
61 113 21 34 30 79 10 48 -7 -11 -10 -7 -10 18 0 17 4 32 9 32 6 0 12 15 14
33 4 29 5 30 12 10 8 -25 21 -30 28 -10 3 6 6 2 6 -10 1 -24 21 -33 21 -10 1
6 8 -4 18 -23 l16 -35 3 40 c4 45 -51 308 -65 313 -10 3 9 72 20 72 5 0 8 -19
8 -43 0 -24 11 -85 24 -137 52 -199 53 -219 16 -261 -16 -18 -26 -37 -23 -42
3 -5 -2 -14 -10 -20 -8 -7 -17 -24 -19 -40 -4 -22 -3 -25 8 -16 10 8 14 8 14
0 0 -6 6 -11 14 -11 8 0 17 -6 19 -12 4 -10 6 -10 6 0 1 6 8 12 17 12 17 0
159 138 190 185 10 16 22 58 26 94 5 37 10 83 13 105 3 22 0 45 -6 52 -19 23
70 18 135 -8 91 -34 195 -170 196 -254 0 -29 17 -98 41 -169 6 -16 10 -34 10
-40 -1 -5 -2 -63 -4 -128 -3 -133 -9 -128 81 -74 164 98 296 281 348 482 25
96 25 284 0 380 -89 341 -373 583 -719 611 -72 5 -194 -5 -248 -22 -12 -3 -18
4 -24 28 -6 29 -8 30 -15 13 -4 -12 -2 -33 6 -53 7 -18 9 -30 4 -27 -6 4 -10
-8 -11 -27 0 -18 -6 -51 -13 -73 -12 -40 -12 -40 -25 -16 -13 24 -13 48 5 228
4 42 0 96 -11 160 -10 54 -18 105 -18 113 0 8 -5 22 -12 30 -7 8 -22 34 -34
57 -32 64 -77 93 -145 95 -47 1 -56 4 -56 20 0 13 -7 18 -25 18 -17 0 -25 6
-25 18 0 10 -3 13 -8 6 -10 -15 -52 -12 -52 3 0 7 -10 13 -22 14 -13 0 -34 3
-47 5 -14 2 -22 1 -18 -2z m-133 -148 c0 -2 -8 -10 -17 -17 -16 -13 -17 -12
-4 4 13 16 21 21 21 13z m411 -53 c10 -12 5 -11 -18 6 -18 12 -33 24 -33 27 0
9 37 -15 51 -33z m-5 -42 c22 -31 12 -25 -27 16 -22 24 -26 31 -11 20 13 -8
30 -25 38 -36z m8 -57 c2 -10 14 -37 26 -59 l22 -40 -28 35 c-16 19 -41 47
-56 61 -20 19 -24 29 -16 37 8 8 8 16 -2 29 -8 10 1 4 18 -12 18 -17 34 -40
36 -51z m-320 23 c-2 -7 -14 -19 -27 -26 -21 -13 -21 -12 2 13 27 29 33 32 25
13z m384 -152 c-3 -3 -9 2 -12 12 -6 14 -5 15 5 6 7 -7 10 -15 7 -18z m119
-77 c-3 -8 -6 -5 -6 6 -1 11 2 17 5 13 3 -3 4 -12 1 -19z m-548 -57 c16 -10 7
-16 -36 -26 -26 -5 -33 -3 -33 8 0 24 42 35 69 18z m661 -324 c0 -12 7 -31 15
-41 19 -25 19 -148 2 -226 -8 -31 -10 -74 -6 -100 4 -32 2 -52 -8 -67 -8 -12
-12 -32 -9 -45 3 -13 -1 -8 -10 11 -8 18 -13 40 -9 49 4 12 3 13 -10 2 -19
-16 -21 -14 -28 35 -4 24 -3 35 2 26 10 -15 23 81 25 171 1 74 16 56 16 -19 0
-54 2 -64 13 -54 14 14 13 166 -1 243 -5 26 -5 45 -1 42 5 -3 9 -15 9 -27z
m-33 -49 c-2 -13 -4 -3 -4 22 0 25 2 35 4 23 2 -13 2 -33 0 -45z m-26 -103
l-9 -100 1 83 c0 46 2 95 5 110 10 52 12 6 3 -93z m39 35 c0 -5 -4 -10 -10
-10 -5 0 -10 5 -10 10 0 6 5 10 10 10 6 0 10 -4 10 -10z m-170 -150 c17 -40 3
-146 -21 -161 -6 -4 -9 -13 -7 -20 3 -8 -3 -25 -12 -39 -26 -37 -33 -83 -20
-131 9 -33 9 -44 -2 -50 -7 -5 -16 -9 -19 -9 -7 0 -4 63 7 140 5 30 9 60 9 65
1 6 5 35 10 65 5 30 8 58 7 63 -1 4 3 7 8 7 7 0 7 6 1 19 -6 10 -8 21 -5 24 5
5 11 28 13 50 2 17 20 5 31 -23z m127 -42 c-2 -13 -4 -5 -4 17 -1 22 1 32 4
23 2 -10 2 -28 0 -40z m-751 -25 c12 -15 15 -16 23 -4 8 12 11 10 16 -11 4
-15 3 -32 -1 -39 -5 -8 -2 -11 7 -7 14 5 18 -10 19 -69 0 -25 15 -31 23 -10 3
7 6 5 6 -5 1 -10 -4 -18 -10 -18 -6 0 -8 -8 -5 -17 3 -10 8 -31 11 -48 l7 -30
-21 33 c-11 17 -25 32 -31 32 -5 0 -25 14 -45 31 -26 23 -34 37 -29 51 5 18 4
18 -16 8 -24 -13 -50 -66 -50 -102 0 -22 -55 -128 -66 -128 -3 0 7 24 24 53
16 28 31 70 34 92 7 50 45 150 64 169 8 8 14 19 14 25 0 16 11 13 26 -6z
m-176 -200 c0 -12 -33 -43 -47 -43 -11 0 -11 4 -1 19 7 11 16 17 20 15 4 -3 8
0 8 5 0 6 5 11 10 11 6 0 10 -3 10 -7z m1103 -13 c3 -11 1 -20 -4 -20 -5 0 -9
9 -9 20 0 11 2 20 4 20 2 0 6 -9 9 -20z m-118 -29 c4 -15 3 -21 -3 -17 -5 3
-12 17 -15 32 -5 30 8 20 18 -15z m-672 -100 c22 -38 22 -56 -2 -34 -19 18
-35 63 -22 63 4 0 14 -13 24 -29z m122 -191 c-3 -5 -10 -10 -16 -10 -5 0 -9 5
-9 10 0 6 7 10 16 10 8 0 12 -4 9 -10z"/>
<path d="M2496 1915 c-3 -9 -6 -22 -5 -28 0 -7 5 -1 10 12 5 13 8 26 5 28 -2
2 -6 -3 -10 -12z"/>
<path d="M2174 2581 c-43 -11 -54 -19 -54 -42 0 -11 4 -18 9 -15 4 3 6 -6 3
-19 -5 -27 7 -32 26 -13 9 9 13 7 18 -5 8 -21 43 -22 50 -2 4 8 10 15 15 15 5
0 9 -7 9 -15 0 -19 9 -19 34 0 19 14 19 15 1 35 -10 11 -36 23 -57 26 -45 8
-44 11 9 29 l38 14 -35 0 c-19 -1 -49 -4 -66 -8z"/>
<path d="M1950 2329 c0 -29 39 -68 76 -75 28 -5 39 -2 55 15 11 11 26 21 34
21 8 0 15 5 15 10 0 13 -16 13 -39 -2 -15 -9 -24 -8 -45 6 -16 10 -35 14 -47
11 -14 -5 -25 -1 -34 12 -12 15 -14 16 -15 2z"/>
<path d="M2180 2337 c0 -2 16 -24 35 -48 19 -24 35 -50 35 -57 0 -7 5 -10 10
-7 21 13 8 42 -35 78 -25 21 -45 36 -45 34z"/>
<path d="M1878 2282 c-48 -34 -46 -59 8 -87 61 -32 86 -37 79 -16 -4 14 6 17
87 19 50 2 95 5 99 8 4 2 10 0 14 -6 9 -15 27 -12 52 8 22 16 15 17 -167 15
-107 -1 -190 2 -190 7 0 5 14 25 31 45 37 41 36 42 -13 7z"/>
<path d="M1980 2131 c14 -12 36 -21 49 -21 30 0 27 3 -29 24 l-45 17 25 -20z"/>
<path d="M2190 1470 c-30 -22 -57 -46 -59 -53 -2 -6 5 -4 16 6 11 9 23 14 26
10 4 -3 7 -1 7 6 0 22 20 1 21 -22 1 -16 4 -12 13 14 6 20 19 44 29 53 9 10
17 19 17 22 0 10 -19 1 -70 -36z"/>
<path d="M1240 1488 c0 -2 11 -19 25 -38 14 -19 25 -27 25 -19 0 8 -12 25 -25
38 -14 13 -25 21 -25 19z"/>
<path d="M2306 1481 c-4 -7 -5 -15 -2 -18 9 -9 19 4 14 18 -4 11 -6 11 -12 0z"/>
<path d="M2800 1465 c-13 -14 -21 -27 -18 -31 3 -3 16 9 28 25 26 37 22 40
-10 6z"/>
<path d="M1295 1355 c4 -22 10 -49 13 -60 7 -24 7 -20 16 -75 4 -25 14 -64 22
-87 7 -23 11 -57 8 -75 -4 -24 -3 -29 4 -19 8 11 9 3 5 -26 -3 -24 0 -50 8
-64 13 -26 16 -46 22 -177 3 -62 10 -94 28 -128 l24 -45 -34 -28 -34 -28 124
-6 c77 -3 141 -11 168 -21 45 -17 179 -23 216 -11 11 4 38 15 60 25 22 9 218
95 435 190 217 95 400 178 406 186 6 7 19 53 28 101 10 48 19 98 22 110 5 28
1 29 -381 48 -165 9 -367 20 -450 25 -82 5 -151 7 -153 5 -3 -2 -13 -71 -23
-152 -10 -81 -25 -191 -33 -243 -9 -52 -16 -111 -16 -130 0 -25 -3 -31 -9 -20
-6 8 -7 18 -5 22 3 4 0 8 -5 8 -6 0 -11 -8 -11 -17 0 -15 -2 -14 -16 3 -15 18
-15 18 -9 -3 8 -30 -3 -30 -15 0 l-9 22 0 -24 c-1 -19 -4 -22 -12 -14 -9 9 -8
20 4 44 8 18 13 38 10 45 -6 15 -16 11 -86 -33 -22 -14 -40 -23 -41 -21 -1 2
-7 14 -13 28 -11 24 -12 24 -12 -12 -1 -52 -21 -48 -22 5 0 34 -2 38 -9 21
-19 -47 -31 -36 -31 29 0 15 -4 27 -9 27 -6 0 -10 -12 -10 -26 0 -16 -4 -23
-11 -18 -8 4 -9 -4 -4 -27 11 -50 -7 -26 -22 29 -15 60 -17 135 -2 110 5 -10
14 -18 20 -18 5 0 1 10 -10 22 -11 12 -20 31 -19 42 2 25 -47 225 -68 281 -9
21 -17 51 -19 65 -5 37 -34 142 -41 149 -3 3 -3 -12 1 -34z m365 -650 c0 -2
-10 -9 -22 -15 -22 -11 -22 -10 -4 4 21 17 26 19 26 11z"/>
<path d="M1642 1340 c0 -19 2 -27 5 -17 2 9 2 25 0 35 -3 9 -5 1 -5 -18z"/>
<path d="M1150 1331 c0 -25 6 -27 13 -6 4 8 2 17 -3 20 -6 4 -10 -3 -10 -14z"/>
<path d="M1180 1311 c0 -5 9 -11 20 -14 24 -6 27 8 4 17 -21 8 -24 8 -24 -3z"/>
<path d="M1930 1269 c0 -11 4 -18 10 -14 5 3 7 12 3 20 -7 21 -13 19 -13 -6z"/>
<path d="M1990 1280 c0 -5 5 -10 10 -10 6 0 10 5 10 10 0 6 -4 10 -10 10 -5 0
-10 -4 -10 -10z"/>
<path d="M1260 1260 c0 -5 5 -10 11 -10 5 0 7 5 4 10 -3 6 -8 10 -11 10 -2 0
-4 -4 -4 -10z"/>
<path d="M1120 1249 c0 -5 5 -7 10 -4 6 3 10 8 10 11 0 2 -4 4 -10 4 -5 0 -10
-5 -10 -11z"/>
<path d="M1150 1239 c0 -5 5 -7 10 -4 6 3 10 8 10 11 0 2 -4 4 -10 4 -5 0 -10
-5 -10 -11z"/>
<path d="M1180 1229 c0 -5 5 -7 10 -4 6 3 10 8 10 11 0 2 -4 4 -10 4 -5 0 -10
-5 -10 -11z"/>
<path d="M1945 1231 c-3 -5 -1 -12 5 -16 5 -3 10 1 10 9 0 18 -6 21 -15 7z"/>
<path d="M1211 1214 c0 -11 3 -14 6 -6 3 7 2 16 -1 19 -3 4 -6 -2 -5 -13z"/>
<path d="M1261 1174 c0 -11 3 -14 6 -6 3 7 2 16 -1 19 -3 4 -6 -2 -5 -13z"/>
<path d="M1285 1150 c3 -5 8 -10 11 -10 2 0 4 5 4 10 0 6 -5 10 -11 10 -5 0
-7 -4 -4 -10z"/>
<path d="M1170 1084 c0 -8 5 -12 10 -9 6 4 8 11 5 16 -9 14 -15 11 -15 -7z"/>
<path d="M1201 1044 c0 -11 3 -14 6 -6 3 7 2 16 -1 19 -3 4 -6 -2 -5 -13z"/>
<path d="M1061 914 c0 -11 3 -14 6 -6 3 7 2 16 -1 19 -3 4 -6 -2 -5 -13z"/>
<path d="M1321 904 c0 -11 3 -14 6 -6 3 7 2 16 -1 19 -3 4 -6 -2 -5 -13z"/>
<path d="M1462 880 c0 -19 2 -27 5 -17 2 9 2 25 0 35 -3 9 -5 1 -5 -18z"/>
<path d="M1237 853 c-4 -3 -7 -13 -7 -22 1 -13 3 -13 11 2 11 19 8 33 -4 20z"/>
<path d="M1134 519 c-9 -15 1 -21 26 -17 21 3 21 3 1 15 -14 9 -22 9 -27 2z"/>
</g>
</svg>
